<svg xmlns="http://www.w3.org/2000/svg" version="1.1" xmlns:xlink="http://www.w3.org/1999/xlink" xmlns:svgjs="http://svgjs.dev/svgjs" width="1000" height="1125" viewBox="0 0 1000 1125"><g transform="matrix(1,0,0,1,0.00011477487299771383,0)"><svg viewBox="0 0 320 360" data-background-color="#000000" preserveAspectRatio="xMidYMid meet" height="1125" width="1000" xmlns="http://www.w3.org/2000/svg" xmlns:xlink="http://www.w3.org/1999/xlink"><g id="tight-bounds" transform="matrix(1,0,0,1,-0.00003672795935472095,0)"><svg viewBox="0 0 320 360" height="360" width="320"><rect width="320.0000734559187" height="360" fill="url(#5039145a-6657-4f32-ae20-a0b5c6c446b8)" mask="url(#321475ab-cd17-4075-9bea-773b50472cee)" data-fill-palette-color="tertiary"></rect><g><svg></svg></g><g><svg viewBox="0 0 320 360" height="360" width="320"><g><path transform="translate(-32.1528,-12.1528) scale(3.84303,3.84303)" d="M88.492 50l1.711-2.963c2.946-5.102 1.198-11.626-3.904-14.572l-2.963-1.711v-3.422c0-5.891-4.776-10.667-10.667-10.667h-3.422l-1.711-2.963c-2.946-5.102-9.47-6.85-14.572-3.904l-2.964 1.71-2.963-1.711c-5.102-2.945-11.626-1.197-14.572 3.905l-1.711 2.963h-3.422c-5.891 0-10.667 4.776-10.667 10.667v3.422l-2.963 1.711c-5.102 2.946-6.85 9.47-3.904 14.572l1.71 2.963-1.711 2.963c-2.945 5.102-1.197 11.626 3.905 14.572l2.963 1.711v3.422c0 5.891 4.776 10.667 10.667 10.667h3.422l1.711 2.963c2.946 5.102 9.47 6.85 14.572 3.904l2.963-1.71 2.963 1.711c5.102 2.946 11.626 1.198 14.572-3.904l1.711-2.963h3.422c5.891 0 10.667-4.776 10.667-10.667v-3.422l2.963-1.711c5.102-2.946 6.85-9.47 3.904-14.572zM85.832 33.273c2.252 1.3 3.862 3.399 4.535 5.91 0.673 2.511 0.328 5.135-0.972 7.386l-1.441 2.497-4.618-7.999v-9.236zM73.72 73.72l-15.038 8.682h-17.364l-15.038-8.682-8.682-15.038v-17.364l8.682-15.038 15.038-8.682h17.364l15.038 8.682 8.682 15.038v17.364zM82.401 60.549v8.158l-7.065 4.079zM72.786 75.336l-4.079 7.065h-8.158zM57.065 83.335l-7.065 4.079-7.065-4.079zM39.451 82.401h-8.158l-4.079-7.065zM24.664 72.786l-7.065-4.079v-8.158zM16.665 57.065l-4.079-7.065 4.079-7.065zM17.599 39.451v-8.158l7.065-4.079zM27.214 24.664l4.079-7.065h8.158zM42.935 16.665l7.065-4.079 7.065 4.079zM60.549 17.599h8.158l4.079 7.065zM75.336 27.214l7.065 4.079v8.158zM83.335 42.935l4.079 7.065-4.079 7.065zM72.668 17.599c2.6 0 5.044 1.012 6.883 2.851 1.838 1.838 2.851 4.283 2.851 6.883v2.883l-7.999-4.618-4.618-7.999zM53.43 10.606c2.252-1.3 4.875-1.645 7.386-0.972 2.511 0.673 4.61 2.284 5.91 4.535l1.441 2.497h-9.236l-7.999-4.618zM33.273 14.168c1.3-2.252 3.399-3.862 5.91-4.535 2.511-0.673 5.135-0.328 7.386 0.972l2.497 1.441-7.999 4.618h-9.236zM17.599 27.332c0-2.6 1.012-5.044 2.851-6.883 1.838-1.838 4.283-2.851 6.883-2.851h2.883l-4.618 7.999-7.999 4.618zM10.606 46.57c-1.3-2.252-1.645-4.875-0.972-7.386 0.673-2.511 2.284-4.61 4.535-5.91l2.497-1.441v9.236l-4.618 7.999zM14.168 66.727c-2.252-1.3-3.862-3.399-4.535-5.91-0.673-2.511-0.328-5.135 0.972-7.386l1.441-2.497 4.618 7.999v9.236zM27.332 82.401c-2.6 0-5.044-1.012-6.883-2.851-1.838-1.838-2.851-4.283-2.851-6.883v-2.883l7.999 4.618 4.618 7.999zM46.57 89.394c-2.252 1.3-4.875 1.645-7.386 0.972-2.511-0.673-4.61-2.284-5.91-4.535l-1.441-2.497h9.236l7.999 4.618zM66.727 85.832c-1.3 2.252-3.399 3.862-5.91 4.535-2.511 0.673-5.135 0.328-7.386-0.972l-2.497-1.441 7.999-4.618h9.236zM82.401 72.668c0 2.6-1.012 5.044-2.851 6.883-1.838 1.838-4.283 2.851-6.883 2.851h-2.883l4.618-7.999 7.999-4.618zM90.367 60.816c-0.673 2.511-2.284 4.61-4.535 5.91l-2.497 1.441v-9.236l4.618-7.999 1.441 2.497c1.3 2.253 1.646 4.876 0.973 7.387z" fill="url(#5039145a-6657-4f32-ae20-a0b5c6c446b8)" fill-rule="nonzero" stroke="none" stroke-width="1" stroke-linecap="butt" stroke-linejoin="miter" stroke-miterlimit="10" stroke-dasharray="" stroke-dashoffset="0" font-family="none" font-weight="none" font-size="none" text-anchor="none" style="mix-blend-mode: normal" data-fill-palette-color="tertiary"></path></g><g transform="matrix(1,0,0,1,102.68878050999115,90)"><svg viewBox="0 0 114.62243898001772 180" height="180" width="114.62243898001772"><g><svg viewBox="0 0 114.62243898001772 180" height="180" width="114.62243898001772"><g><svg viewBox="0 0 172.3913043478261 270.71867479646176" height="180" width="114.62243898001772"><g transform="matrix(1,0,0,1,0,90.71867479646178)"><svg viewBox="0 0 172.3913043478261 180" height="180" width="172.3913043478261"><g id="textblocktransform"><svg viewBox="0 0 172.3913043478261 180" height="180" width="172.3913043478261" id="textblock"><g><svg viewBox="0 0 172.3913043478261 180" height="180" width="172.3913043478261"><g transform="matrix(1,0,0,1,0,0)"><svg width="172.3913043478261" viewBox="1.93 -40.43 38.72 40.43" height="180" data-palette-color="url(#7a2035c0-809f-4848-bea3-44f39924c5bf)"></svg></g></svg></g></svg></g></svg></g><g transform="matrix(1,0,0,1,32.926739130434775,0)"><svg viewBox="0 0 106.53782608695654 64.45235479646178" height="64.45235479646178" width="106.53782608695654"><g><svg xmlns="http://www.w3.org/2000/svg" xmlns:xlink="http://www.w3.org/1999/xlink" version="1.1" viewBox="1.7189999999999983 20.00262250704499 92.562 55.99737749295501" x="0" y="0" height="64.45235479646178" width="106.53782608695654" class="icon-icon-0" data-fill-palette-color="accent" id="icon-0"></svg></g></svg></g><g></g></svg></g></svg></g></svg></g></svg></g><defs></defs><mask id="a88c7920-76ed-4d0f-bd1f-a7bd536cfde8"><g id="SvgjsG1004"><svg viewBox="0 0 320 360" height="360" width="320"><g><svg></svg></g><g><svg viewBox="0 0 320 360" height="360" width="320"><g></g><g transform="matrix(1,0,0,1,102.68878050999115,90)"><svg viewBox="0 0 114.62243898001772 180" height="180" width="114.62243898001772"><g><svg viewBox="0 0 114.62243898001772 180" height="180" width="114.62243898001772"><g><svg viewBox="0 0 172.3913043478261 270.71867479646176" height="180" width="114.62243898001772"><g transform="matrix(1,0,0,1,0,90.71867479646178)"><svg viewBox="0 0 172.3913043478261 180" height="180" width="172.3913043478261"><g id="SvgjsG1003"><svg viewBox="0 0 172.3913043478261 180" height="180" width="172.3913043478261" id="SvgjsSvg1002"><g><svg viewBox="0 0 172.3913043478261 180" height="180" width="172.3913043478261"><g transform="matrix(1,0,0,1,0,0)"><svg width="172.3913043478261" viewBox="1.93 -40.43 38.72 40.43" height="180" data-palette-color="url(#7a2035c0-809f-4848-bea3-44f39924c5bf)"><path d="M40.65-10.55L21.39-10.55 24.29-12.3 40.65-12.3 40.65-10.55ZM40.65-7.03L15.63-7.03 18.58-8.79 40.65-8.79 40.65-7.03ZM40.65-3.52L9.79-3.52 12.77-5.27 40.65-5.27 40.65-3.52ZM1.93-29.88L21.19-29.88 18.29-28.13 1.93-28.13 1.93-29.88ZM1.93-33.4L26.95-33.4 24-31.64 1.93-31.64 1.93-33.4ZM1.93-36.91L32.79-36.91 29.81-35.16 1.93-35.16 1.93-36.91ZM1.93-10.28L40.65-36.3 40.65-34.25 1.93-8.23 1.93-10.28ZM1.93-6.18L40.65-32.15 40.65-30.08 1.93-4.08 1.93-6.18ZM1.93-2.08L40.65-28.03 40.65-25.98 4.54-1.76 40.65-1.76 40.65 0 1.93 0Q1.93 0 1.93-2.08L1.93-2.08ZM1.93-14.4L38.04-38.67 1.93-38.67 1.93-40.43 40.65-40.43Q40.65-40.43 40.65-38.33L40.65-38.33 1.93-12.38 1.93-14.4Z" opacity="1" transform="matrix(1,0,0,1,0,0)" fill="white" class="wordmark-text-0" id="SvgjsPath1001"></path></svg></g></svg></g></svg></g></svg></g><g transform="matrix(1,0,0,1,32.926739130434775,0)"><svg viewBox="0 0 106.53782608695654 64.45235479646178" height="64.45235479646178" width="106.53782608695654"><g><svg xmlns="http://www.w3.org/2000/svg" xmlns:xlink="http://www.w3.org/1999/xlink" version="1.1" viewBox="1.7189999999999983 20.00262250704499 92.562 55.99737749295501" x="0" y="0" height="64.45235479646178" width="106.53782608695654" class="icon-icon-0" data-fill-palette-color="accent" id="SvgjsSvg1000"></svg></g></svg></g><g></g></svg></g></svg></g></svg></g></svg></g><defs><mask></mask></defs></svg></g></mask><linearGradient x1="0" x2="1" y1="0.5" y2="0.5" id="7a2035c0-809f-4848-bea3-44f39924c5bf"><stop stop-color="#fff72e" offset="0"></stop><stop stop-color="#deae29" offset="1"></stop></linearGradient><rect width="320.0000734559187" height="360" fill="url(#7a2035c0-809f-4848-bea3-44f39924c5bf)" mask="url(#a88c7920-76ed-4d0f-bd1f-a7bd536cfde8)" data-fill-palette-color="primary"></rect><mask id="e526aa40-70fc-472e-817c-c74cd667eadb"><g id="SvgjsG1013"><svg viewBox="0 0 320 360" height="360" width="320"><g><svg></svg></g><g><svg viewBox="0 0 320 360" height="360" width="320"><g></g><g transform="matrix(1,0,0,1,102.68878050999115,90)"><svg viewBox="0 0 114.62243898001772 180" height="180" width="114.62243898001772"><g><svg viewBox="0 0 114.62243898001772 180" height="180" width="114.62243898001772"><g><svg viewBox="0 0 172.3913043478261 270.71867479646176" height="180" width="114.62243898001772"><g transform="matrix(1,0,0,1,0,90.71867479646178)"><svg viewBox="0 0 172.3913043478261 180" height="180" width="172.3913043478261"><g id="SvgjsG1012"><svg viewBox="0 0 172.3913043478261 180" height="180" width="172.3913043478261" id="SvgjsSvg1011"><g><svg viewBox="0 0 172.3913043478261 180" height="180" width="172.3913043478261"><g transform="matrix(1,0,0,1,0,0)"><svg width="172.3913043478261" viewBox="1.93 -40.43 38.72 40.43" height="180" data-palette-color="url(#7a2035c0-809f-4848-bea3-44f39924c5bf)"></svg></g></svg></g></svg></g></svg></g><g transform="matrix(1,0,0,1,32.926739130434775,0)"><svg viewBox="0 0 106.53782608695654 64.45235479646178" height="64.45235479646178" width="106.53782608695654"><g><svg xmlns="http://www.w3.org/2000/svg" xmlns:xlink="http://www.w3.org/1999/xlink" version="1.1" viewBox="1.7189999999999983 20.00262250704499 92.562 55.99737749295501" x="0" y="0" height="64.45235479646178" width="106.53782608695654" class="icon-icon-0" data-fill-palette-color="accent" id="SvgjsSvg1010"><path d="M28.288 74.572c-0.512 0-1.024-0.196-1.416-0.584l-24.568-24.572c-0.78-0.776-0.78-2.052 0-2.828l24.568-24.576c0.78-0.78 2.052-0.78 2.828 0 0.78 0.78 0.78 2.048 0 2.828l-23.156 23.156 23.156 23.156c0.78 0.78 0.78 2.048 0 2.828-0.388 0.396-0.9 0.592-1.412 0.592z" fill="white"></path><path d="M67.716 74.572c-0.512 0-1.024-0.196-1.416-0.584-0.78-0.78-0.78-2.048 0-2.828l23.156-23.16-23.156-23.156c-0.78-0.78-0.78-2.048 0-2.828s2.048-0.78 2.828 0l24.568 24.576c0.78 0.776 0.78 2.052 0 2.828l-24.568 24.572c-0.388 0.384-0.9 0.58-1.412 0.58z" fill="white"></path><path d="M38.288 76c-0.244 0-0.484-0.048-0.724-0.132-1.028-0.4-1.544-1.556-1.144-2.584l20-52c0.396-1.028 1.556-1.544 2.584-1.148 1.028 0.4 1.544 1.556 1.148 2.584l-20 52c-0.304 0.788-1.06 1.28-1.864 1.28z" fill="white"></path></svg></g></svg></g><g></g></svg></g></svg></g></svg></g></svg></g><defs><mask></mask></defs><mask><g id="SvgjsG1009"><svg viewBox="0 0 320 360" height="360" width="320"><g><svg></svg></g><g><svg viewBox="0 0 320 360" height="360" width="320"><g></g><g transform="matrix(1,0,0,1,102.68878050999115,90)"><svg viewBox="0 0 114.62243898001772 180" height="180" width="114.62243898001772"><g><svg viewBox="0 0 114.62243898001772 180" height="180" width="114.62243898001772"><g><svg viewBox="0 0 172.3913043478261 270.71867479646176" height="180" width="114.62243898001772"><g transform="matrix(1,0,0,1,0,90.71867479646178)"><svg viewBox="0 0 172.3913043478261 180" height="180" width="172.3913043478261"><g id="SvgjsG1008"><svg viewBox="0 0 172.3913043478261 180" height="180" width="172.3913043478261" id="SvgjsSvg1007"><g><svg viewBox="0 0 172.3913043478261 180" height="180" width="172.3913043478261"><g transform="matrix(1,0,0,1,0,0)"><svg width="172.3913043478261" viewBox="1.93 -40.43 38.72 40.43" height="180" data-palette-color="url(#7a2035c0-809f-4848-bea3-44f39924c5bf)"></svg></g></svg></g></svg></g></svg></g><g transform="matrix(1,0,0,1,32.926739130434775,0)"><svg viewBox="0 0 106.53782608695654 64.45235479646178" height="64.45235479646178" width="106.53782608695654"><g><svg xmlns="http://www.w3.org/2000/svg" xmlns:xlink="http://www.w3.org/1999/xlink" version="1.1" viewBox="1.7189999999999983 20.00262250704499 92.562 55.99737749295501" x="0" y="0" height="64.45235479646178" width="106.53782608695654" class="icon-icon-0" data-fill-palette-color="accent" id="SvgjsSvg1005"></svg></g></svg></g><g></g></svg></g></svg></g></svg></g></svg></g><defs><mask></mask></defs></svg></g></mask></svg></g></mask><linearGradient x1="0" x2="1" y1="0.5" y2="0.5" id="f4848e03-f7a9-4035-804e-39ac6b542dbd"><stop stop-color="#fff72e" offset="0"></stop><stop stop-color="#deae29" offset="1"></stop></linearGradient><rect width="320.0000734559187" height="360" fill="url(#f4848e03-f7a9-4035-804e-39ac6b542dbd)" mask="url(#e526aa40-70fc-472e-817c-c74cd667eadb)" data-fill-palette-color="accent"></rect><mask id="321475ab-cd17-4075-9bea-773b50472cee"><g id="SvgjsG1030"><svg viewBox="0 0 320 360" height="360" width="320"><g><svg></svg></g><g><svg viewBox="0 0 320 360" height="360" width="320"><g><path transform="translate(-32.1528,-12.1528) scale(3.84303,3.84303)" d="M88.492 50l1.711-2.963c2.946-5.102 1.198-11.626-3.904-14.572l-2.963-1.711v-3.422c0-5.891-4.776-10.667-10.667-10.667h-3.422l-1.711-2.963c-2.946-5.102-9.47-6.85-14.572-3.904l-2.964 1.71-2.963-1.711c-5.102-2.945-11.626-1.197-14.572 3.905l-1.711 2.963h-3.422c-5.891 0-10.667 4.776-10.667 10.667v3.422l-2.963 1.711c-5.102 2.946-6.85 9.47-3.904 14.572l1.71 2.963-1.711 2.963c-2.945 5.102-1.197 11.626 3.905 14.572l2.963 1.711v3.422c0 5.891 4.776 10.667 10.667 10.667h3.422l1.711 2.963c2.946 5.102 9.47 6.85 14.572 3.904l2.963-1.71 2.963 1.711c5.102 2.946 11.626 1.198 14.572-3.904l1.711-2.963h3.422c5.891 0 10.667-4.776 10.667-10.667v-3.422l2.963-1.711c5.102-2.946 6.85-9.47 3.904-14.572zM85.832 33.273c2.252 1.3 3.862 3.399 4.535 5.91 0.673 2.511 0.328 5.135-0.972 7.386l-1.441 2.497-4.618-7.999v-9.236zM73.72 73.72l-15.038 8.682h-17.364l-15.038-8.682-8.682-15.038v-17.364l8.682-15.038 15.038-8.682h17.364l15.038 8.682 8.682 15.038v17.364zM82.401 60.549v8.158l-7.065 4.079zM72.786 75.336l-4.079 7.065h-8.158zM57.065 83.335l-7.065 4.079-7.065-4.079zM39.451 82.401h-8.158l-4.079-7.065zM24.664 72.786l-7.065-4.079v-8.158zM16.665 57.065l-4.079-7.065 4.079-7.065zM17.599 39.451v-8.158l7.065-4.079zM27.214 24.664l4.079-7.065h8.158zM42.935 16.665l7.065-4.079 7.065 4.079zM60.549 17.599h8.158l4.079 7.065zM75.336 27.214l7.065 4.079v8.158zM83.335 42.935l4.079 7.065-4.079 7.065zM72.668 17.599c2.6 0 5.044 1.012 6.883 2.851 1.838 1.838 2.851 4.283 2.851 6.883v2.883l-7.999-4.618-4.618-7.999zM53.43 10.606c2.252-1.3 4.875-1.645 7.386-0.972 2.511 0.673 4.61 2.284 5.91 4.535l1.441 2.497h-9.236l-7.999-4.618zM33.273 14.168c1.3-2.252 3.399-3.862 5.91-4.535 2.511-0.673 5.135-0.328 7.386 0.972l2.497 1.441-7.999 4.618h-9.236zM17.599 27.332c0-2.6 1.012-5.044 2.851-6.883 1.838-1.838 4.283-2.851 6.883-2.851h2.883l-4.618 7.999-7.999 4.618zM10.606 46.57c-1.3-2.252-1.645-4.875-0.972-7.386 0.673-2.511 2.284-4.61 4.535-5.91l2.497-1.441v9.236l-4.618 7.999zM14.168 66.727c-2.252-1.3-3.862-3.399-4.535-5.91-0.673-2.511-0.328-5.135 0.972-7.386l1.441-2.497 4.618 7.999v9.236zM27.332 82.401c-2.6 0-5.044-1.012-6.883-2.851-1.838-1.838-2.851-4.283-2.851-6.883v-2.883l7.999 4.618 4.618 7.999zM46.57 89.394c-2.252 1.3-4.875 1.645-7.386 0.972-2.511-0.673-4.61-2.284-5.91-4.535l-1.441-2.497h9.236l7.999 4.618zM66.727 85.832c-1.3 2.252-3.399 3.862-5.91 4.535-2.511 0.673-5.135 0.328-7.386-0.972l-2.497-1.441 7.999-4.618h9.236zM82.401 72.668c0 2.6-1.012 5.044-2.851 6.883-1.838 1.838-4.283 2.851-6.883 2.851h-2.883l4.618-7.999 7.999-4.618zM90.367 60.816c-0.673 2.511-2.284 4.61-4.535 5.91l-2.497 1.441v-9.236l4.618-7.999 1.441 2.497c1.3 2.253 1.646 4.876 0.973 7.387z" fill="white" fill-rule="nonzero" stroke="none" stroke-width="1" stroke-linecap="butt" stroke-linejoin="miter" stroke-miterlimit="10" stroke-dasharray="" stroke-dashoffset="0" font-family="none" font-weight="none" font-size="none" text-anchor="none" style="mix-blend-mode: normal"></path></g><g transform="matrix(1,0,0,1,102.68878050999115,90)"><svg viewBox="0 0 114.62243898001772 180" height="180" width="114.62243898001772"><g><svg viewBox="0 0 114.62243898001772 180" height="180" width="114.62243898001772"><g><svg viewBox="0 0 172.3913043478261 270.71867479646176" height="180" width="114.62243898001772"><g transform="matrix(1,0,0,1,0,90.71867479646178)"><svg viewBox="0 0 172.3913043478261 180" height="180" width="172.3913043478261"><g id="SvgjsG1029"><svg viewBox="0 0 172.3913043478261 180" height="180" width="172.3913043478261" id="SvgjsSvg1028"><g><svg viewBox="0 0 172.3913043478261 180" height="180" width="172.3913043478261"><g transform="matrix(1,0,0,1,0,0)"><svg width="172.3913043478261" viewBox="1.93 -40.43 38.72 40.43" height="180" data-palette-color="url(#7a2035c0-809f-4848-bea3-44f39924c5bf)"></svg></g></svg></g></svg></g></svg></g><g transform="matrix(1,0,0,1,32.926739130434775,0)"><svg viewBox="0 0 106.53782608695654 64.45235479646178" height="64.45235479646178" width="106.53782608695654"><g><svg xmlns="http://www.w3.org/2000/svg" xmlns:xlink="http://www.w3.org/1999/xlink" version="1.1" viewBox="1.7189999999999983 20.00262250704499 92.562 55.99737749295501" x="0" y="0" height="64.45235479646178" width="106.53782608695654" class="icon-icon-0" data-fill-palette-color="accent" id="SvgjsSvg1027"></svg></g></svg></g><g></g></svg></g></svg></g></svg></g></svg></g><defs><mask></mask></defs><mask><g id="SvgjsG1026"><svg viewBox="0 0 320 360" height="360" width="320"><g><svg></svg></g><g><svg viewBox="0 0 320 360" height="360" width="320"><g></g><g transform="matrix(1,0,0,1,102.68878050999115,90)"><svg viewBox="0 0 114.62243898001772 180" height="180" width="114.62243898001772"><g><svg viewBox="0 0 114.62243898001772 180" height="180" width="114.62243898001772"><g><svg viewBox="0 0 172.3913043478261 270.71867479646176" height="180" width="114.62243898001772"><g transform="matrix(1,0,0,1,0,90.71867479646178)"><svg viewBox="0 0 172.3913043478261 180" height="180" width="172.3913043478261"><g id="SvgjsG1025"><svg viewBox="0 0 172.3913043478261 180" height="180" width="172.3913043478261" id="SvgjsSvg1024"><g><svg viewBox="0 0 172.3913043478261 180" height="180" width="172.3913043478261"><g transform="matrix(1,0,0,1,0,0)"><svg width="172.3913043478261" viewBox="1.93 -40.43 38.72 40.43" height="180" data-palette-color="url(#7a2035c0-809f-4848-bea3-44f39924c5bf)"></svg></g></svg></g></svg></g></svg></g><g transform="matrix(1,0,0,1,32.926739130434775,0)"><svg viewBox="0 0 106.53782608695654 64.45235479646178" height="64.45235479646178" width="106.53782608695654"><g><svg xmlns="http://www.w3.org/2000/svg" xmlns:xlink="http://www.w3.org/1999/xlink" version="1.1" viewBox="1.7189999999999983 20.00262250704499 92.562 55.99737749295501" x="0" y="0" height="64.45235479646178" width="106.53782608695654" class="icon-icon-0" data-fill-palette-color="accent" id="SvgjsSvg1022"></svg></g></svg></g><g></g></svg></g></svg></g></svg></g></svg></g><defs><mask></mask></defs></svg></g></mask><mask><g id="SvgjsG1021"><svg viewBox="0 0 320 360" height="360" width="320"><g><svg></svg></g><g><svg viewBox="0 0 320 360" height="360" width="320"><g></g><g transform="matrix(1,0,0,1,102.68878050999115,90)"><svg viewBox="0 0 114.62243898001772 180" height="180" width="114.62243898001772"><g><svg viewBox="0 0 114.62243898001772 180" height="180" width="114.62243898001772"><g><svg viewBox="0 0 172.3913043478261 270.71867479646176" height="180" width="114.62243898001772"><g transform="matrix(1,0,0,1,0,90.71867479646178)"><svg viewBox="0 0 172.3913043478261 180" height="180" width="172.3913043478261"><g id="SvgjsG1020"><svg viewBox="0 0 172.3913043478261 180" height="180" width="172.3913043478261" id="SvgjsSvg1019"><g><svg viewBox="0 0 172.3913043478261 180" height="180" width="172.3913043478261"><g transform="matrix(1,0,0,1,0,0)"><svg width="172.3913043478261" viewBox="1.93 -40.43 38.72 40.43" height="180" data-palette-color="url(#7a2035c0-809f-4848-bea3-44f39924c5bf)"></svg></g></svg></g></svg></g></svg></g><g transform="matrix(1,0,0,1,32.926739130434775,0)"><svg viewBox="0 0 106.53782608695654 64.45235479646178" height="64.45235479646178" width="106.53782608695654"><g><svg xmlns="http://www.w3.org/2000/svg" xmlns:xlink="http://www.w3.org/1999/xlink" version="1.1" viewBox="1.7189999999999983 20.00262250704499 92.562 55.99737749295501" x="0" y="0" height="64.45235479646178" width="106.53782608695654" class="icon-icon-0" data-fill-palette-color="accent" id="SvgjsSvg1018"></svg></g></svg></g><g></g></svg></g></svg></g></svg></g></svg></g><defs><mask></mask></defs><mask><g id="SvgjsG1017"><svg viewBox="0 0 320 360" height="360" width="320"><g><svg></svg></g><g><svg viewBox="0 0 320 360" height="360" width="320"><g></g><g transform="matrix(1,0,0,1,102.68878050999115,90)"><svg viewBox="0 0 114.62243898001772 180" height="180" width="114.62243898001772"><g><svg viewBox="0 0 114.62243898001772 180" height="180" width="114.62243898001772"><g><svg viewBox="0 0 172.3913043478261 270.71867479646176" height="180" width="114.62243898001772"><g transform="matrix(1,0,0,1,0,90.71867479646178)"><svg viewBox="0 0 172.3913043478261 180" height="180" width="172.3913043478261"><g id="SvgjsG1016"><svg viewBox="0 0 172.3913043478261 180" height="180" width="172.3913043478261" id="SvgjsSvg1015"><g><svg viewBox="0 0 172.3913043478261 180" height="180" width="172.3913043478261"><g transform="matrix(1,0,0,1,0,0)"><svg width="172.3913043478261" viewBox="1.93 -40.43 38.72 40.43" height="180" data-palette-color="url(#7a2035c0-809f-4848-bea3-44f39924c5bf)"></svg></g></svg></g></svg></g></svg></g><g transform="matrix(1,0,0,1,32.926739130434775,0)"><svg viewBox="0 0 106.53782608695654 64.45235479646178" height="64.45235479646178" width="106.53782608695654"><g><svg xmlns="http://www.w3.org/2000/svg" xmlns:xlink="http://www.w3.org/1999/xlink" version="1.1" viewBox="1.7189999999999983 20.00262250704499 92.562 55.99737749295501" x="0" y="0" height="64.45235479646178" width="106.53782608695654" class="icon-icon-0" data-fill-palette-color="accent" id="SvgjsSvg1014"></svg></g></svg></g><g></g></svg></g></svg></g></svg></g></svg></g><defs><mask></mask></defs></svg></g></mask></svg></g></mask></svg></g></mask><linearGradient x1="0" x2="1" y1="0.5" y2="0.5" id="5039145a-6657-4f32-ae20-a0b5c6c446b8"><stop stop-color="#fff72e" offset="0"></stop><stop stop-color="#deae29" offset="1"></stop></linearGradient></svg><rect width="320" height="360" fill="none" stroke="none" visibility="hidden"></rect></g></svg></g></svg>